PathFileType	4	(X/Y/Z)	T00_JumpTrial_0-2667.trc
DataRate	CameraRate	NumFrames	NumMarkers	Units	OrigDataRate	OrigDataStartFrame	OrigNumFrames
30	30	10	21	m	30	333	2667
Frame#	Time	RHip			RKnee			RAnkle			RBigToe			RSmallToe			RHeel			LHip			LKnee			LAnkle			LBigToe			LSmallToe			LHeel			Neck			Head			Nose			RShoulder			RElbow			RWrist			LShoulder			LElbow			LWrist		
		X1	Y1	Z1	X2	Y2	Z2	X3	Y3	Z3	X4	Y4	Z4	X5	Y5	Z5	X6	Y6	Z6	X7	Y7	Z7	X8	Y8	Z8	X9	Y9	Z9	X10	Y10	Z10	X11	Y11	Z11	X12	Y12	Z12	X13	Y13	Z13	X14	Y14	Z14	X15	Y15	Z15	X16	Y16	Z16	X17	Y17	Z17	X18	Y18	Z18	X19	Y19	Z19	X20	Y20	Z20	X21	Y21	Z21
334	11.133333333333333	-9.054000986887928	1.6048360477921637	1.5766303954303253	-3.676649023878286	2.2274897557578606	1.540584740975129	-4.439201303410281	-1.2501945485029686	0.7895762968792968	-4.231960533582489	2.8744255473192615	0.725108266280363	-4.257528996778192	2.781776973390622	0.6573203569759143	-3.958082428371808	2.483848282956411	1.017081114654617	-3.9170022702544345	2.3480527512656533	0.9149066530300692	-4.478844073845994	1.5896646296719756	1.6209665049945319	-4.196430789384553	-1.2411410681782424	0.6710089340266623	-3.859149877708231	2.642024772914716	1.5828014065632834	-3.90974631123732	2.634060803244661	1.7124765210456154	-3.948810572701453	2.487831675719898	1.5076524844856425				-4.9407509536732555	-1.225375693813805	0.93749706943497	-4.68053611209561	-1.0989375957461514	0.7470172414436872	-6.88164055449694	-1.2016084391074473	1.9874500951069092	-3.6520112437049077	0.34802670889295995	1.3308903236792624	-4.313307534879215	1.5829676989610824	0.9540168187824069	-6.235662969804305	-0.8229645142639119	1.3167829158267996	-5.876408017611753	-1.5898252128505446	2.3174415120720724	-3.4666533685297094	0.39290783702564136	1.1133294429438216
335	11.166666666666666	-12.811340585371479	2.468888373155793	1.5805039277646247	-3.6778149058237215	2.222481100663887	1.5412619029397787	-4.045467929698451	-1.2837801574033945	0.8494322420448743	-4.160600568867818	2.8245951444531663	0.8727181761452681	-4.256018522335134	2.7807704362540835	0.7882801067066912	-3.863152581686864	2.4133904434871813	1.112078293968466	-3.83850628832663	2.294083135893273	1.0108186558015302	-4.557504668141071	1.628895993627038	1.6332168209996656	-3.818697582003893	-1.2707308792167735	0.7341046032633004	-3.8594188766709245	2.6446828370321804	1.583396650626436	-3.954253411706799	2.6662409655547408	1.7143051351889103	-3.9739119222033215	2.4890495874022367	1.5124840080360864				-4.966088039306595	-1.2218612942505953	0.9800169796377391	-4.471559952043562	-1.114624089396805	0.7705153880587341	-7.325791532405158	-1.1437459828307197	2.0338320512528876	-3.626389026019741	0.35067008662003196	1.3588953827487773	-4.22299614884352	1.5386075113222268	1.0132485071424795	-6.814072573936954	-0.7892647705200658	1.3601803472990917	-5.567741537310866	-1.6003512846165984	2.3379357864748345	-2.757092949850993	0.22563389173187054	1.154223574093856
336	11.2	-11.750763753470496	2.2140713628277884	1.5915498267954982	-3.6809645374604103	2.21665377896827	1.5375559931953988	-4.456072812249478	-1.2590720613886346	0.8691459762981465	-4.084480214200366	2.7717593504408296	1.029586387592435	-4.255555542035031	2.7813587991245763	0.9266947895756259	-3.7642511622399195	2.3404343343053498	1.210928777844451	-3.759681690057421	2.2390233711661005	1.1110028915768586	-4.632978972898869	1.6660090201784044	1.642524057271804	-4.23304406432244	-1.2529906793739847	0.746389752604254	-3.854603031643683	2.6447862398052058	1.5798191681370188	-4.001481137623535	2.699861516633878	1.7117656665607137	-4.000189383384607	2.487720324645163	1.5132199993114386				-4.967993012185447	-1.2195517138801952	1.0245987785576143	-4.483519604833166	-1.1116287166140457	0.7907593435395597	-6.277756833599589	-1.249929823097135	2.02000308377538	-3.98551749506006	0.4472308117959004	1.3671828052921706	-4.12302868321946	1.4892982043121388	1.073411113845828	-6.808687342279119	-0.7670512744124888	1.388188424154984	-5.31762695076729	-1.5965587210732728	2.321258181247669	-2.8758543698668366	0.23743822442078039	1.1413877927345375
337	11.233333333333333	-4.289401942081582	0.4798343370503344	1.6133201657504561	-3.6854032521878684	2.2106313888337517	1.5321832910789506	-5.9013517505012585	-0.9300437108229949	0.8254965623002152	-4.007495110792243	2.7185255988144497	1.1876407934811577	-4.254972566263913	2.782389971110727	1.065870836550293	-3.6648777734605047	2.2675640959716175	1.3095596350982261	-3.6816230282519333	2.184165352184294	1.211094127166456	-4.706269104180607	1.7016676704890505	1.6507567808092114	-5.263070797615134	-0.9707835553322253	0.6950731913522622	-3.8465046414142137	2.642957560173626	1.5743740335973486	-4.046851341415583	2.7320561137492443	1.7072221734530981	-4.026734876779027	2.485316595687989	1.5124066887934384				-5.350570437365808	-1.060606910843362	1.0598235738364563	-5.143991352198893	-0.9076040947674946	0.7599602841436426	-4.197099618620265	-1.2570158183320308	2.0524766521700997	-4.5700974340162	0.5982660316597435	1.3660653465619863	-4.018289510885979	1.4376895152954787	1.1327294410717843	-4.710171549555379	-0.8089784622087414	1.4868571967763111	-4.185487905993816	-1.5790313359675823	2.3897911179332905	-4.075864750980446	0.47904782318649236	1.0804967142091737
338	11.266666666666667							-4.684327351940303	-1.2414502435420656	0.912047948429085																-4.43701157923182	-1.2468189258539768	0.7674124545107245													-4.741339242977911	-1.2502673797167791	1.0820549696580317	-3.8763242783748058	-1.1927027789957514	0.8710239509902069	-7.271372384391475	-1.1549423265070096	2.2147519342192643							-6.072997625355137	-0.8407926298146378	1.4521064345233585	-5.828272655658525	-1.5428930486356576	2.4992311373473624	-6.368660958400227	0.9525996553578864	0.9848281065960064
339	11.3							-4.490086512614459	-1.2528228378744932	0.9314820796454109																-4.453098768367912	-1.2421092552241777	0.788020924832441													-4.957145054659138	-1.2341546179410998	1.0891362417176083	-4.502710639302907	-1.1408024464616744	0.8923225584472358	-7.202338914518472	-1.0784259774035823	2.2169170758030226							-5.605262858034271	-0.8649811576236334	1.4558067243916217	-6.145973033716456	-1.523402158501988	2.5235066162931483	-8.800218828555387	1.4658706052028776	0.8980723489130118
340	11.333333333333334							-4.705620586362913	-1.235147486573533	0.9342157550147503																-4.447295525923835	-1.249169249154565	0.7892809972377172													-4.761420053995246	-1.241726469796657	1.1038302119185217	-4.755750186280836	-1.1231281284911547	0.8938891689605443	-7.171579184570319	-1.0655632713409138	2.2125957830942693							-5.50596982254841	-0.8574078956744479	1.4545915371087426	-6.125648131612683	-1.5196919159755007	2.565495813598632	-10.416104196383841	1.825707057904798	0.859925364309353
341	11.366666666666667							-4.497332511299353	-1.2603158716736886	0.9528879546790887																-4.238143283062002	-1.2679247976283106	0.8300344583597111													-4.967450514773539	-1.2328612996249935	1.1115392515963045	-4.754842320122763	-1.1250326064908003	0.9148882125695534	-7.1260158837504015	-1.0645794931574466	2.2336700354622567							-5.854303702090641	-0.8468600613907441	1.4942679424495973	-6.114004601654864	-1.503802495734707	2.63486648479613	-11.225803919637551	2.029593485369617	0.863692641519208
342	11.4							-4.492614558856473	-1.2503968351003225	0.9943445430021137																-4.243042381097421	-1.2698630453310844	0.8697372189094185													-4.988656507943763	-1.2299980112765005	1.1545195380656463	-4.523349597875576	-1.1322869948312895	0.9354346243910487	-7.954902342974596	-1.0036747136823718	2.358656902154637							-6.456424945816602	-0.7724856814257575	1.5587172242025498	-6.770326205059782	-1.3940372632548406	2.77987729381032	-11.47978511177199	2.1226738811839625	0.891082060673008
343	11.433333333333334							-4.73762587348274	-1.2310363131369795	1.0400605156545693																-4.7040304134434034	-1.2254664926780123	0.8918479127858898													-5.2408898929600705	-1.2057005338815852	1.2090206784974982	-4.749236393150797	-1.109769928313347	0.9384881683025086	-6.615021607671045	-1.0529272720806244	2.2929826137092637							-6.6726033375362155	-0.7120123984134882	1.5805733037072405	-6.172882288583434	-1.3392333737248743	2.735366179249264	-11.428514886242631	2.1500922389344623	0.9238015019011844
